<?xml version="1.0" encoding="utf-8"?>
<!-- Generator: Adobe Illustrator 28.0.0, SVG Export Plug-In . SVG Version: 6.00 Build 0)  -->
<svg version="1.1" id="Layer_1" xmlns="http://www.w3.org/2000/svg" xmlns:xlink="http://www.w3.org/1999/xlink" x="0px" y="0px"
	 viewBox="0 0 724 358.7" style="enable-background:new 0 0 724 358.7;" xml:space="preserve">
<style type="text/css">
	.st0{fill:#D82121;}
</style>
<g>
	<g>
		<path class="st0" d="M177.5,356.8V210.5h22.4c28,0,50.6,22.6,50.6,50.6s-22.6,50.6-50.6,50.6H192v45.1H177.5z M192,297.2h7.9
			c19.9,0,36.1-16.2,36.1-36.1S219.8,225,199.9,225H192V297.2z"/>
		<path class="st0" d="M308.2,356.8V210.5h14.5v146.3H308.2z"/>
		<path class="st0" d="M379.7,283.8c0-42.1,34.2-76.2,76.2-76.2c21.1,0,40.2,8.5,53.8,22.4l-10.5,10.5
			c-11.1-11.1-26.5-17.9-43.4-17.9c-33.8,0-61.1,27.6-61.1,61.3c0,33.8,27.3,61.1,61.1,61.1c16.9,0,32.2-6.8,43.4-17.9l10.5,10.7
			c-13.7,13.7-32.7,22.2-53.8,22.2C413.9,359.8,379.7,325.9,379.7,283.8z"/>
		<path class="st0" d="M561.1,356.8V210.5h14.5v62.8l37.2-62.8h17.1L589.3,278l47.2,78.8h-16.9l-38.9-64.5l-5.1,8.8v55.8H561.1z"/>
		<path class="st0" d="M673,358.1v-15c1.7,0.8,3.6,1.1,5.5,1.1c16.9,0,29-11.8,29-28.8c0-11.8-6.6-19.9-13.7-28.4
			c-8.1-9.8-16.7-20.1-16.7-37c0-24.8,18.6-41.4,41.9-41.4h1.1v14.1h-1.1c-15.2,0-27.5,10.9-27.5,27.3c0,10.9,6.4,19,13.5,27.5
			c8.1,10,16.9,20.9,16.9,37.8c0,25.6-17.7,43.4-43.4,43.4C676.6,358.8,674.7,358.8,673,358.1z"/>
	</g>
	<g>
		<path class="st0" d="M0,171.1c0-46.5,0-93,0-139.6c16-5.1,32.1-9.5,48.3-13.2c29.9-7.2,54.8,18.4,54.9,53.6
			c0.1,35.3-24.2,64.5-54.3,65.7c-2.6,0.1-5.1,0.3-7.7,0.4c0.1,10.9,0.1,21.9,0.1,32.8C27.6,171,13.8,171.1,0,171.1z M41,95.7
			c2.6-0.3,5.1-0.6,7.7-0.9C57,93.8,63.9,85.6,63.9,76c-0.1-9.4-7-16.1-15.3-14.7c-2.6,0.4-5.1,0.9-7.7,1.3
			C40.9,73.7,41,84.7,41,95.7z"/>
		<path class="st0" d="M106.8,89.5C106.5,43.4,139.2,0.3,179.9,0c40.7,0.1,73.4,43.1,73.1,89.3c-0.2,46.4-33,84.4-73.1,84.7
			C139.8,173.7,107,135.8,106.8,89.5z M207.6,87.4c0-18.2-12.3-33.5-27.7-33.5c-15.4,0-27.7,15.4-27.7,33.6
			c0,18,12.3,32.6,27.7,32.6C195.2,120,207.5,105.4,207.6,87.4z"/>
		<path class="st0" d="M259.2,170.7c0.2-54,0.5-108.1,0.8-162.1c16.5,2.2,32.9,5,49.1,8.6c30,7.1,53.8,39.6,53.8,69
			c0.1,29.5-24.3,52.2-54.4,51.2c-2.6-0.1-5.2-0.3-7.7-0.4c-0.1,11.3-0.1,22.5-0.2,33.8C286.7,170.8,273,170.7,259.2,170.7z
			 M300.9,93.3c2.6,0.3,5.1,0.5,7.7,0.8c8.3,0.9,15.2-5.5,15.3-14.7c0-9-6.8-17.6-15.1-19c-2.6-0.4-5.1-0.8-7.7-1.2
			C301,70.6,301,82,300.9,93.3z"/>
	</g>
	<g>
		<path class="st0" d="M365,121c0-29.1,23.6-53,53-53c14.7,0,27.9,5.9,37.7,15.5l-26.3,26.1c-3.1-2.9-6.9-4.5-11.4-4.5
			c-8.8,0-15.9,7.1-15.9,15.9c0,9,7.1,16.1,15.9,16.1c4.5,0,8.3-1.8,11.2-4.7l26.3,26.3c-9.6,9.4-22.8,15.3-37.5,15.3
			C388.7,174,365,150.4,365,121z"/>
		<path class="st0" d="M453.7,121c0-29.1,23.8-53,53.2-53c29.3,0,53,23.8,53,53c0,29.3-23.6,53-53,53
			C477.5,174,453.7,150.4,453.7,121z M522.7,121c0-8.8-7.1-16.1-15.9-16.1c-9,0-16.1,7.3-16.1,16.1c0,9,7.1,16.1,16.1,16.1
			C515.6,137.1,522.7,130,522.7,121z"/>
		<path class="st0" d="M569,171.1V70.9H606v6.3c3.9-5.3,10.4-9.4,17.9-9.4v35.6c-1.2-0.4-2.7-0.6-3.9-0.6
			c-5.7,0.4-11.2,3.3-14.1,7.7v60.5L569,171.1L569,171.1z"/>
		<path class="st0" d="M633.1,171.1V70.9h37.1v7.7c4.9-6.3,12.8-10.8,23.2-10.8c16.1,0,30.6,11.8,30.6,34.6v68.7h-37.3v-56.2
			c0-5.5-3.3-8.8-8.3-8.8c-3.5,0-6.7,2-8.2,5.1v59.9L633.1,171.1L633.1,171.1z"/>
	</g>
	<rect x="377.4" y="23.3" class="st0" width="346.6" height="29.2"/>
	<path class="st0" d="M135.3,230.2c0-15.1-12.3-27.4-27.4-27.4c-2.7,0-5.4,0.4-8,1.2c-3.4-11.2-13.9-19.4-26.2-19.4
		c-11,0-20.8,6.6-25.1,16.4c-2.9-1-6-1.6-9.1-1.6c-15.1,0-27.4,12.3-27.4,27.4c0,5.8,1.8,11.2,4.9,15.6l15.4,112.9h77.3L129.4,247
		C133.1,242.4,135.3,236.5,135.3,230.2z M39.5,208.8c3.3,0,6.6,0.9,9.5,2.7c1.3,0.8,2.9,0.9,4.3,0.3s2.4-1.9,2.7-3.4
		c1.7-8.4,9.1-14.5,17.7-14.5c9.5,0,17.4,7.4,18,16.9c0.1,1.6,1,3.1,2.5,3.9c1.4,0.8,3.2,0.7,4.6-0.1c2.8-1.7,6-2.5,9.2-2.5
		c9.9,0,18,8.1,18,18c0,3.9-1.3,7.5-3.4,10.5H27.9c-4-3.3-6.5-8.3-6.5-13.8C21.4,216.9,29.5,208.8,39.5,208.8z"/>
	<polygon class="st0" points="494.6,283.6 436.5,250.1 436.5,317.1 	"/>
</g>
</svg>
