<?xml version="1.0" encoding="utf-8"?>
<!-- Generator: Adobe Illustrator 28.0.0, SVG Export Plug-In . SVG Version: 6.00 Build 0)  -->
<svg version="1.1" id="Layer_1" xmlns="http://www.w3.org/2000/svg" xmlns:xlink="http://www.w3.org/1999/xlink" x="0px" y="0px"
	 viewBox="0 0 922 120.7" style="enable-background:new 0 0 922 120.7;" xml:space="preserve">
<style type="text/css">
	.st0{fill:#FFFFFF;}
</style>
<g>
	<path class="st0" d="M0,116.2C0,84.6,0,53,0,21.4C10.8,18,21.8,15,32.8,12.5C53.2,7.6,70,25,70.1,48.9c0.1,24-16.4,43.8-36.9,44.6
		c-1.8,0.1-3.5,0.2-5.2,0.3c0,7.4,0.1,14.8,0.1,22.3C18.7,116.1,9.4,116.1,0,116.2z M27.8,65c1.7-0.2,3.5-0.4,5.2-0.6
		c5.7-0.6,10.3-6.2,10.3-12.7c0-6.4-4.8-10.9-10.4-10c-1.7,0.3-3.5,0.6-5.2,0.9C27.8,50,27.8,57.5,27.8,65z"/>
	<path class="st0" d="M72.5,60.8C72.3,29.4,94.5,0.2,122.1,0c27.6,0.1,49.8,29.2,49.7,60.6c-0.2,31.5-22.4,57.3-49.6,57.5
		C94.9,117.9,72.7,92.2,72.5,60.8z M140.9,59.3c0-12.4-8.3-22.8-18.8-22.7c-10.5,0-18.8,10.4-18.8,22.8c0,12.2,8.4,22.1,18.8,22.1
		C132.6,81.5,140.9,71.6,140.9,59.3z"/>
	<path class="st0" d="M176,115.9c0.2-36.7,0.4-73.4,0.5-110.1c11.2,1.5,22.3,3.4,33.3,5.8c20.4,4.8,36.5,26.9,36.5,46.9
		c0,20-16.5,35.4-37,34.8c-1.8-0.1-3.5-0.2-5.2-0.3c0,7.6-0.1,15.3-0.1,22.9C194.7,115.9,185.3,115.9,176,115.9z M204.3,63.3
		c1.8,0.2,3.5,0.4,5.2,0.6c5.7,0.6,10.4-3.7,10.4-9.9c0-6.1-4.6-12-10.3-12.9c-1.7-0.3-3.5-0.5-5.2-0.8
		C204.4,48,204.4,55.7,204.3,63.3z"/>
	<path class="st0" d="M247.8,82.2c0-19.8,16-36,36-36c10,0,19,4,25.6,10.5l-17.9,17.7c-2.1-1.9-4.7-3-7.8-3c-6,0-10.8,4.8-10.8,10.8
		c0,6.1,4.8,10.9,10.8,10.9c3,0,5.7-1.2,7.6-3.2l17.9,17.9c-6.5,6.4-15.5,10.4-25.5,10.4C263.9,118.1,247.8,102.1,247.8,82.2z"/>
	<path class="st0" d="M308,82.2c0-19.8,16.2-36,36.1-36s36,16.2,36,36c0,19.9-16,36-36,36S308,102.1,308,82.2z M354.9,82.2
		c0-6-4.8-10.9-10.8-10.9c-6.1,0-10.9,5-10.9,10.9c0,6.1,4.8,10.9,10.9,10.9C350.1,93.1,354.9,88.3,354.9,82.2z"/>
	<path class="st0" d="M386.3,116.2V48.1h25.2v4.3c2.6-3.6,7.1-6.4,12.2-6.4v24.2c-0.8-0.3-1.8-0.4-2.6-0.4c-3.9,0.3-7.6,2.2-9.5,5.3
		v41.1L386.3,116.2L386.3,116.2z"/>
	<path class="st0" d="M429.9,116.2V48.1h25.2v5.3c3.3-4.3,8.7-7.3,15.8-7.3c10.9,0,20.8,8,20.8,23.5v46.6h-25.3V78
		c0-3.7-2.2-6-5.7-6c-2.4,0-4.6,1.4-5.5,3.5v40.7L429.9,116.2L429.9,116.2z"/>
	<rect x="256.3" y="15.8" class="st0" width="235.3" height="19.8"/>
	<path class="st0" d="M597.1,31.2c0-5.1-2.1-9.8-5.5-13.1c-3.3-3.4-8-5.4-13.2-5.4c-1.9,0-3.7,0.3-5.5,0.8c-1-3.1-2.7-5.9-5-8.1
		c-3.3-3.1-7.8-5.1-12.8-5.1c-4.5,0-8.6,1.6-11.8,4.3c-2.2,1.8-4,4.2-5.2,6.9c-1.9-0.7-4-1.1-6.2-1.1c-5.1,0-9.8,2.1-13.2,5.4
		c-3.4,3.4-5.5,8-5.5,13.1c0,3.9,1.2,7.6,3.3,10.6l10.4,76.7h52.5l13.4-73.6C595.6,39.5,597.1,35.5,597.1,31.2z M523.4,20.3
		c2.2-2.2,5.3-3.6,8.7-3.6c2.4,0,4.5,0.7,6.4,1.9c0.9,0.6,2,0.6,2.9,0.2s1.7-1.3,1.8-2.3c0.6-2.8,2.1-5.2,4.2-7
		c2.1-1.8,4.8-2.8,7.8-2.8c3.3,0,6.2,1.3,8.4,3.3c2.2,2.1,3.6,4.9,3.8,8.2c0.1,1.1,0.7,2.1,1.7,2.6c1,0.5,2.2,0.5,3.1-0.1
		c1.8-1.1,4-1.7,6.2-1.7c3.4,0,6.4,1.4,8.7,3.6c2.2,2.2,3.6,5.3,3.6,8.7c0,2.7-0.9,5.1-2.3,7.1h-64.2c-0.3-0.2-0.6-0.5-0.8-0.7
		c-2.2-2.2-3.6-5.3-3.6-8.7C519.8,25.5,521.2,22.5,523.4,20.3z"/>
	<path class="st0" d="M616.2,116.2V16.9h15.2c19,0,34.4,15.4,34.4,34.4s-15.4,34.4-34.4,34.4H626v30.6H616.2z M626,75.8h5.4
		c13.5,0,24.5-11,24.5-24.5s-11-24.5-24.5-24.5H626V75.8z"/>
	<rect x="689" y="16.9" class="st0" width="9.9" height="99.3"/>
	<path class="st0" d="M721.6,66.6c0-28.6,23.2-51.8,51.8-51.8c14.4,0,27.3,5.8,36.5,15.2l-7.1,7.1c-7.5-7.5-18-12.2-29.4-12.2
		c-22.9,0-41.5,18.7-41.5,41.6s18.6,41.5,41.5,41.5c11.5,0,21.9-4.6,29.4-12.2l7.1,7.2c-9.3,9.3-22.2,15.1-36.5,15.1
		C744.8,118.2,721.6,95.2,721.6,66.6z"/>
	<polygon class="st0" points="828.8,116.2 828.8,16.9 838.6,16.9 838.6,59.5 863.8,16.9 875.5,16.9 847.9,62.7 879.9,116.2 
		868.5,116.2 842.1,72.4 838.6,78.4 838.6,116.2 	"/>
	<path class="st0" d="M888.8,117.1v-10.1c1.2,0.6,2.5,0.7,3.8,0.7c11.5,0,19.7-8,19.7-19.6c0-8-4.5-13.5-9.3-19.3
		c-5.5-6.7-11.3-13.6-11.3-25.1c0-16.8,12.6-28.1,28.4-28.1h0.7v9.6h-0.7c-10.3,0-18.7,7.4-18.7,18.6c0,7.4,4.3,12.9,9.1,18.7
		C916,69.2,922,76.6,922,88.1c0,17.4-12,29.4-29.4,29.4C891.2,117.5,890,117.5,888.8,117.1z"/>
	<polygon class="st0" points="800.1,67.2 760.7,44.5 760.7,90 	"/>
</g>
</svg>
