<?xml version="1.0"?><svg xmlns="http://www.w3.org/2000/svg"  viewBox="0 0 50 50" width="50px" height="50px">    <path d="M41,4H9C6.24,4,4,6.24,4,9v32c0,2.76,2.24,5,5,5h32c2.76,0,5-2.24,5-5V9C46,6.24,43.76,4,41,4z M16.06,19.06 c0.51-0.58,1.31-0.96,2.02-1.06c0.1,0.77-0.2,1.55-0.61,2.03c-0.5,0.58-1.21,0.97-2.01,0.97C15.26,20.32,15.56,19.65,16.06,19.06z M20.39,29.1c-0.6,0.8-1.41,1.9-2.31,1.9c-0.91,0-1.11-0.6-2.22-0.5c-1.21,0-1.41,0.6-2.32,0.5c-1,0-1.71-0.9-2.21-1.8 c-1.51-2.3-1.71-5.1-0.71-6.6c0.71-1,1.71-1.6,2.72-1.6c1.01,0,1.71,0.6,2.52,0.6s1.31-0.6,2.52-0.6c0.91,0,1.81,0.5,2.52,1.3 c-2.22,1.2-1.82,4.3,0.4,5.2C20.9,28.2,20.7,28.5,20.39,29.1z M29.4,22.38h-2.6v5.22c0,1.2,0.3,1.9,1.4,1.9c0.5,0,0.8,0,1-0.1 l0.1,1.4C29,30.9,28.4,31,27.7,31c-0.8,0-1.5-0.3-2-0.8c-0.5-0.6-0.7-1.4-0.7-2.6v-5.22h-1.5V21H25v-2.5l1.8-0.5v3h2.6V22.38z M36.11,31h-1.7l-3.79-10h1.9l1.99,5.6c0.3,0.9,0.6,1.7,0.8,2.6h0.1c0.2-0.8,0.5-1.6,0.8-2.6l1.9-5.6H40L36.11,31z"/></svg>